<svg width="500" height="500" viewBox="0 0 500 500" fill="none" xmlns="http://www.w3.org/2000/svg">
<path d="M471.302 465.995H39.05C32.998 465.995 28.091 461.089 28.091 455.036C28.091 448.983 32.997 444.077 39.05 444.077H471.301C477.353 444.077 482.26 448.983 482.26 455.036C482.26 461.088 477.354 465.995 471.302 465.995Z" fill="#E1E8EF"/>
<path d="M229.364 457.52C229.364 457.52 223.394 440.962 186.798 453.205C158.297 462.74 147.618 432.055 122.053 448.694C96.488 465.333 78.012 433.446 68.765 457.519L229.364 457.52Z" fill="#A4BFD8"/>
<path d="M254.214 410.262C345.09 410.262 418.759 341.124 418.759 255.839C418.759 170.554 345.09 101.416 254.214 101.416C163.338 101.416 89.669 170.554 89.669 255.839C89.669 341.124 163.338 410.262 254.214 410.262Z" fill="#F2F5F9"/>
<path d="M374.736 114.293C374.736 114.293 378.231 80.26 409.687 80.26C441.143 80.26 446.774 109.414 444.638 115.045C444.638 115.045 464.055 116.792 466.191 130.385C468.327 143.977 456.677 153.88 438.619 153.88C420.561 153.88 379.008 153.88 379.008 153.88C379.008 153.88 352.989 153.298 352.989 136.599C352.988 119.9 365.609 114.317 374.736 114.293Z" fill="#D5ECF7"/>
<path d="M213.204 66.054C213.204 66.054 216.529 33.673 246.459 33.673C276.388 33.673 281.746 61.412 279.714 66.77C279.714 66.77 298.189 68.433 300.221 81.365C302.253 94.297 291.168 103.72 273.987 103.72C256.806 103.72 217.269 103.72 217.269 103.72C217.269 103.72 192.513 103.166 192.513 87.277C192.512 71.388 204.521 66.077 213.204 66.054Z" fill="#D5ECF7"/>
<path d="M94.876 59.915H86.94C86.94 59.915 77.161 63.895 77.161 74.584V361.537C77.161 364.708 79.732 367.28 82.904 367.28H252.543C255.771 367.28 258.769 365.607 260.464 362.861L266.022 353.856L94.876 59.915Z" fill="#433E51"/>
<path d="M259.956 358.751H93.032C89.165 358.751 86.031 355.616 86.031 351.75V66.916C86.031 63.049 89.166 59.915 93.032 59.915H259.956C263.823 59.915 266.957 63.05 266.957 66.916V351.749C266.957 355.616 263.823 358.751 259.956 358.751Z" fill="#5A5368"/>
<path d="M249.237 349.881H103.751C100.244 349.881 97.402 347.038 97.402 343.532V75.133C97.402 71.626 100.245 68.784 103.751 68.784H249.237C252.744 68.784 255.586 71.627 255.586 75.133V343.531C255.586 347.038 252.743 349.881 249.237 349.881Z" fill="#E2ECF7"/>
<path d="M177.432 68.784H175.556H153.097L159.465 75.607H175.556H177.432H193.522L199.89 68.784H177.432Z" fill="#5A5368"/>
<path d="M106.726 79.0529L104.346 73.4807H106.049L108.055 78.3046H107.052L109.106 73.4807H110.666L108.278 79.0529H106.726ZM110.992 79.0529V73.4807H113.539C114.049 73.4807 114.487 73.563 114.853 73.7275C115.224 73.892 115.511 74.1308 115.713 74.4439C115.914 74.7517 116.015 75.1179 116.015 75.5424C116.015 75.9617 115.914 76.3252 115.713 76.633C115.511 76.9408 115.224 77.1796 114.853 77.3494C114.487 77.5139 114.049 77.5962 113.539 77.5962H111.868L112.568 76.9116V79.0529H110.992ZM112.568 77.0788L111.868 76.3544H113.444C113.773 76.3544 114.017 76.2827 114.176 76.1394C114.341 75.9962 114.423 75.7972 114.423 75.5424C114.423 75.2824 114.341 75.0807 114.176 74.9374C114.017 74.7942 113.773 74.7225 113.444 74.7225H111.868L112.568 73.9981V77.0788ZM116.784 79.0529V73.4807H118.081L121.154 77.1902H120.541V73.4807H122.085V79.0529H120.788L117.715 75.3434H118.328V79.0529H116.784Z" fill="#5A5368"/>
<path d="M246.516 80.003C248.609 80.003 250.306 78.3062 250.306 76.213C250.306 74.1198 248.609 72.423 246.516 72.423C244.423 72.423 242.726 74.1198 242.726 76.213C242.726 78.3062 244.423 80.003 246.516 80.003Z" fill="#5A5368"/>
<path d="M82.088 103.884V159.56C82.088 160.582 81.04 161.269 80.103 160.862L75.114 158.693V104.869L80.088 102.598C81.023 102.171 82.088 102.855 82.088 103.884Z" fill="#5A5368"/>
<path d="M81.33 181.281V202.561C81.33 203.764 80.107 204.58 78.996 204.12L75.113 202.51V180.98L79.564 179.894C80.464 179.675 81.33 180.356 81.33 181.281Z" fill="#5A5368"/>
<path d="M82.088 128.597H75.114V129.886H82.088V128.597Z" fill="#433E51"/>
<path d="M86.03 84.249V294.844" stroke="#302D3D" stroke-miterlimit="10" stroke-linecap="round" stroke-linejoin="round"/>
<path d="M86.03 338.965V309.096" stroke="#302D3D" stroke-miterlimit="10" stroke-linecap="round" stroke-linejoin="round"/>
<path d="M232.571 197.562C199.769 181.89 177.227 181.89 177.227 181.89C177.227 181.89 154.685 181.89 121.883 197.562C118.372 199.24 116.253 202.907 116.605 206.783C118.113 223.427 122.497 268.355 127.289 285.326C128.233 288.668 130.218 291.614 132.956 293.75L170.923 323.378C172.724 324.783 174.943 325.547 177.227 325.547C179.511 325.547 181.73 324.784 183.531 323.378L221.498 293.75C224.236 291.613 226.221 288.668 227.165 285.326C231.958 268.354 236.341 223.427 237.849 206.783C238.201 202.907 236.083 199.24 232.571 197.562Z" fill="#64C0FF"/>
<path d="M228.617 201.575C198.159 187.023 177.228 187.023 177.228 187.023C177.228 187.023 156.297 187.023 125.839 201.575C122.579 203.133 120.612 206.538 120.938 210.137C122.338 225.592 126.409 267.309 130.859 283.068C131.735 286.171 133.579 288.907 136.121 290.89L171.375 318.401C173.047 319.706 175.108 320.415 177.229 320.415C179.35 320.415 181.41 319.706 183.083 318.401L218.337 290.89C220.879 288.906 222.723 286.171 223.599 283.068C228.049 267.309 232.12 225.592 233.52 210.137C233.844 206.538 231.877 203.133 228.617 201.575Z" fill="#3396FF"/>
<path opacity="0.35" d="M125.838 201.575C122.578 203.133 120.611 206.538 120.937 210.137C122.337 225.592 126.408 267.309 130.858 283.068C131.734 286.171 133.578 288.906 136.12 290.89L171.374 318.401C173.046 319.706 175.107 320.415 177.228 320.415V187.023C177.228 187.023 156.296 187.023 125.838 201.575Z" fill="#3396FF"/>
<path d="M191.092 239.012V217.672C191.092 215.579 189.395 213.882 187.302 213.882H167.259C165.165 213.882 163.469 215.579 163.469 217.672V228.664H158.352V214.74C158.352 211.251 161.18 208.423 164.669 208.423H190.469C193.958 208.423 196.786 211.251 196.786 214.74V239.011L191.092 239.012Z" fill="#E2E8EB"/>
<path d="M195.535 237.761H177.227H158.92C156.345 237.761 154.258 239.848 154.258 242.423V268.52C154.258 268.52 158.579 286.657 177.228 286.657C195.877 286.657 200.198 268.52 200.198 268.52V242.423C200.197 239.848 198.11 237.761 195.535 237.761Z" fill="#FFD41F"/>
<path opacity="0.55" d="M180.563 281.597C161.914 281.597 157.593 263.46 157.593 263.46V237.976C155.669 238.55 154.257 240.313 154.257 242.423V268.52C154.257 268.52 158.578 286.657 177.227 286.657C189.398 286.657 195.464 278.934 198.211 273.567C194.725 277.729 189.174 281.597 180.563 281.597Z" fill="#FFD41F"/>
<path d="M177.227 248.222C177.227 248.222 170.177 248.222 170.177 254.192C170.177 259.424 173.702 259.309 173.702 259.309V266.075H177.227H180.752V259.309C180.752 259.309 184.277 259.424 184.277 254.192C184.278 248.222 177.227 248.222 177.227 248.222Z" fill="#823D00"/>
<path d="M182.27 165.802C198.254 163.208 209.108 148.148 206.514 132.164C203.92 116.18 188.86 105.325 172.875 107.919C156.891 110.513 146.037 125.574 148.631 141.558C151.225 157.542 166.286 168.397 182.27 165.802Z" fill="#3396FF"/>
<path d="M163.765 140.719C154.298 149.742 155.319 165.061 155.319 165.061C161.535 170.368 177.228 171.429 177.228 171.429C177.228 171.429 192.92 170.368 199.137 165.061C199.137 165.061 200.158 149.742 190.691 140.719C183.057 133.443 171.398 133.443 163.765 140.719Z" fill="#8ACDFF"/>
<path d="M177.227 129.961C185.454 129.961 192.123 123.292 192.123 115.065C192.123 106.838 185.454 100.169 177.227 100.169C169 100.169 162.331 106.838 162.331 115.065C162.331 123.292 169 129.961 177.227 129.961Z" fill="#8ACDFF"/>
<path d="M217.936 156.792V113.354C217.936 110.842 219.972 108.805 222.484 108.805H255.991C255.991 108.805 261.298 111.534 261.298 116.689H280.667C283.493 116.689 285.784 118.98 285.784 121.806V155.351C285.784 158.868 282.933 161.719 279.416 161.719H222.863C220.143 161.719 217.936 159.513 217.936 156.792Z" fill="#4C94FF"/>
<path opacity="0.55" d="M217.936 156.792V113.354C217.936 110.842 219.972 108.805 222.484 108.805H255.991C255.991 108.805 261.298 111.534 261.298 116.689H280.667C283.493 116.689 285.784 118.98 285.784 121.806V155.351C285.784 158.868 282.933 161.719 279.416 161.719H222.863C220.143 161.719 217.936 159.513 217.936 156.792Z" fill="#4C94FF"/>
<path d="M229.535 119.045V89.688C229.535 86.621 232.021 84.135 235.088 84.135H272.064L283.284 95.165V123.062H229.536L229.535 119.045Z" fill="white"/>
<path d="M271.722 84.217V94.519C271.722 95.776 272.764 96.75 273.947 96.6L283.094 95.442C283.274 95.419 283.348 95.185 283.215 95.053L272.124 84.033C271.972 83.882 271.722 83.996 271.722 84.217Z" fill="#EFEFEF"/>
<path d="M245.296 98.608L247.867 97.041C248.087 96.907 248.37 96.937 248.557 97.114L253.147 101.46C253.385 101.685 253.763 101.665 253.975 101.416L262.392 91.535C262.587 91.306 262.926 91.267 263.167 91.446L266.218 93.706C266.5 93.915 266.529 94.327 266.278 94.573L254.382 106.256C254.175 106.459 253.849 106.475 253.623 106.293L245.233 99.541C244.927 99.294 244.958 98.814 245.296 98.608Z" fill="#E89D3A"/>
<path d="M222.637 159.83V116.392C222.637 113.88 224.673 111.843 227.185 111.843H260.692C260.692 111.843 265.999 114.572 265.999 119.727H285.368C288.194 119.727 290.485 122.018 290.485 124.844V158.389C290.485 161.906 287.634 164.757 284.117 164.757H227.564C224.843 164.757 222.637 162.551 222.637 159.83Z" fill="#4C94FF"/>
<path d="M283.283 127.611H228.853V132.159H283.283V127.611Z" fill="#FFD41F"/>
<path d="M283.283 127.611H254.779V132.159H283.283V127.611Z" fill="#FFB522"/>
<path d="M283.283 127.611H267.288V132.159H283.283V127.611Z" fill="#FF9B24"/>
<path d="M191.1 112.073C192.702 112.073 194 110.775 194 109.173C194 107.571 192.702 106.273 191.1 106.273C189.498 106.273 188.2 107.571 188.2 109.173C188.2 110.775 189.498 112.073 191.1 112.073Z" fill="white"/>
<path d="M191.1 109.173V94.464C191.1 91.879 193.196 89.783 195.781 89.783H225.062" stroke="white" stroke-width="1.2" stroke-miterlimit="10" stroke-linecap="round" stroke-linejoin="round"/>
<path d="M201.221 136.862C201.221 138.464 199.923 139.762 198.321 139.762C196.72 139.762 195.421 138.464 195.421 136.862C195.421 135.261 196.719 133.962 198.321 133.962C199.923 133.963 201.221 135.261 201.221 136.862Z" fill="white"/>
<path d="M198.321 136.862V104.741C198.321 101.834 200.678 99.478 203.584 99.478H223.849" stroke="white" stroke-width="1.2" stroke-miterlimit="10" stroke-linecap="round" stroke-linejoin="round"/>
<path d="M208.925 187.708C208.925 189.44 207.521 190.845 205.788 190.845C204.055 190.845 202.651 189.441 202.651 187.708C202.651 185.976 204.055 184.571 205.788 184.571C207.521 184.571 208.925 185.976 208.925 187.708Z" fill="white"/>
<path d="M205.788 187.708H227.232C230.137 187.708 232.491 185.353 232.491 182.449V169.002" stroke="white" stroke-width="1.2" stroke-miterlimit="10" stroke-linecap="round" stroke-linejoin="round"/>
<path d="M218.772 229.63C218.772 231.671 217.117 233.326 215.076 233.326C213.035 233.326 211.38 231.671 211.38 229.63C211.38 227.589 213.035 225.934 215.076 225.934C217.117 225.935 218.772 227.589 218.772 229.63Z" fill="white"/>
<path d="M215.076 229.63H240.607C243.739 229.63 246.278 227.091 246.278 223.959V169.002" stroke="white" stroke-width="1.2" stroke-miterlimit="10" stroke-linecap="round" stroke-linejoin="round"/>
<path d="M229.383 249.587C229.383 249.587 228.322 244.053 220.892 244.053C216.426 244.053 214.234 245.861 213.195 247.303C212.427 248.37 211.219 249.03 209.905 249L193.487 248.62C193.487 248.62 191.27 249.871 191.099 250.098C190.963 250.28 192.64 253.798 193.321 255.207C193.492 255.561 193.846 255.791 194.239 255.804L197.126 255.897V254.589L199.461 254.647C199.844 254.656 200.188 254.881 200.352 255.227L201.447 257.546H205.029V255.722C205.029 255.208 205.452 254.795 205.966 254.807L209.445 254.893L210.828 258.058H214.353C214.353 258.058 216.016 260.732 219.989 261.527C223.962 262.322 229.365 261.469 230.274 259.309C231.184 257.149 229.383 249.587 229.383 249.587ZM220.893 256.068C219.244 256.068 217.908 254.732 217.908 253.083C217.908 251.434 219.244 250.098 220.893 250.098C222.541 250.098 223.878 251.434 223.878 253.083C223.878 254.732 222.541 256.068 220.893 256.068Z" fill="#FFB031"/>
<path d="M310.422 434.028V442.367C310.422 442.367 286.163 452.677 284.647 453.738C283.131 454.799 283.965 457.907 287.073 458.514L334.491 457.68V435.051L310.422 434.028Z" fill="#EFEFEF"/>
<path d="M287.073 458.514L334.491 457.68V441.76C334.491 441.76 329.601 444.603 321.414 444.603C313.227 444.603 310.422 442.367 310.422 442.367C310.422 442.367 286.163 452.677 284.647 453.738C283.132 454.8 283.965 457.908 287.073 458.514Z" fill="#51251E"/>
<path d="M284.039 455.968C284.349 457.069 285.347 458.177 287.073 458.514L334.491 457.68V453.992L284.039 455.968Z" fill="#381612"/>
<path d="M301.894 446.764L305.419 450.327" stroke="#381612" stroke-width="0.75" stroke-miterlimit="10" stroke-linecap="round"/>
<path d="M306.185 444.714L310.084 448.656" stroke="#381612" stroke-width="0.75" stroke-miterlimit="10" stroke-linecap="round"/>
<path d="M415.341 418.108L420.572 421.974C420.572 421.974 414.204 442.215 417.957 450.175C417.957 450.175 420.345 451.388 422.468 449.644C424.387 448.068 440.249 415.878 443.273 409.721C443.554 409.149 443.335 408.465 442.778 408.154L425.576 398.549L415.341 418.108Z" fill="#411B13"/>
<path d="M415.341 418.108L420.572 421.974C420.572 421.974 414.204 442.215 417.957 450.175C417.957 450.175 420.345 451.388 422.468 449.644C424.387 448.068 440.249 415.878 443.273 409.721C443.554 409.149 443.335 408.465 442.778 408.154L425.576 398.549L415.341 418.108Z" fill="#51251E"/>
<path d="M431.718 401.98L425.575 398.55L415.495 417.814C415.558 417.998 415.625 418.185 415.701 418.375L420.572 421.975C420.572 421.975 430.243 415.303 431.718 401.98Z" fill="#EFEFEF"/>
<path d="M422.467 449.645C424.386 448.069 440.248 415.879 443.272 409.722C443.553 409.15 443.334 408.466 442.777 408.155L440.444 406.853L417.956 450.176C417.956 450.176 420.344 451.388 422.467 449.645Z" fill="#381612"/>
<path d="M420.268 425.078L426.599 423.965" stroke="#381612" stroke-width="0.75" stroke-miterlimit="10" stroke-linecap="round"/>
<path d="M418.973 430.219L424.722 429.252" stroke="#381612" stroke-width="0.75" stroke-miterlimit="10" stroke-linecap="round"/>
<path d="M311.067 300.53C311.067 300.53 302.539 371.259 303.448 435.544C303.448 435.544 327.555 437.439 341.655 436.757C341.655 436.757 339.987 401.734 341.655 383.236C343.323 364.739 346.052 316.676 346.052 316.676C346.052 316.676 358.485 387.633 368.491 396.502C378.498 405.372 414.658 424.703 414.658 424.703L428.682 395.365L395.781 375.048L388.958 299.833L311.067 300.53Z" fill="#5A2402"/>
<path d="M383.473 310.309L388.391 378.566L424.722 403.652" stroke="#7F370E" stroke-width="0.75" stroke-miterlimit="10" stroke-linecap="round"/>
<path d="M340.028 314.186L336.442 436.896" stroke="#7F370E" stroke-width="0.75" stroke-miterlimit="10" stroke-linecap="round"/>
<path opacity="0.44" d="M343.291 361.442C344.683 340.798 346.053 316.677 346.053 316.677L340.029 314.186L343.291 361.442Z" fill="#5A2402"/>
<path d="M310.574 310.309C310.574 310.309 314.44 308.793 317.321 303.562" stroke="#7F370E" stroke-width="0.75" stroke-miterlimit="10" stroke-linecap="round"/>
<path d="M337.391 313.095L346.052 316.677" stroke="#7F370E" stroke-width="0.75" stroke-miterlimit="10" stroke-linecap="round"/>
<path d="M370.614 304.699C370.614 304.699 375.655 311.446 388.391 310.536" stroke="#7F370E" stroke-width="0.75" stroke-miterlimit="10" stroke-linecap="round"/>
<path d="M242.271 248.146C242.271 248.146 225.593 248.601 225.063 248.601C224.532 248.601 222.107 249.283 222.031 251.861C221.955 254.439 227.262 255.576 229.309 255.576C229.309 255.576 227.888 261.641 222.259 261.641C222.259 261.641 219.587 261.868 217.881 260.788C217.881 260.788 216.744 261.356 217.369 263.347C217.995 265.337 220.894 267.043 220.894 267.043C220.894 267.043 219.245 270.397 222.941 272.956C226.637 275.515 231.811 275.969 232.152 271.819C232.152 271.819 234.692 274.832 239.467 274.605C244.243 274.378 246.279 272.71 246.279 272.71L242.271 248.146Z" fill="#F9D5BF"/>
<path d="M237.105 262.392C232.508 260.301 232.548 256.125 232.548 256.125L229.294 255.626C229.194 256.015 228.272 259.28 225.474 260.829C227.59 261.126 228.835 261.527 228.835 261.527L231.05 258.456C233.232 261.352 237.105 262.392 237.105 262.392Z" fill="#FCA695"/>
<path d="M238.784 263.232C238.784 263.232 233.288 261.242 232.549 256.125C232.549 256.125 228.085 255.529 225.371 254.861" stroke="#DB7665" stroke-width="0.5" stroke-miterlimit="10" stroke-linecap="round"/>
<path d="M225.788 260.917C225.788 260.917 229.478 260.958 231.355 263.232C233.231 265.506 229.99 268.52 229.081 268.52C229.081 268.52 222.827 267.781 220.894 267.042" stroke="#DB7665" stroke-width="0.5" stroke-miterlimit="10" stroke-linecap="round"/>
<path d="M229.08 268.52C229.08 268.52 231.411 269.43 232.15 271.818C232.15 271.818 232.377 274.976 228.397 274.904" stroke="#DB7665" stroke-width="0.5" stroke-miterlimit="10" stroke-linecap="round"/>
<path d="M400.502 303.543C400.502 303.543 397.318 308.319 397.034 310.707C396.75 313.095 398.512 316.279 400.218 317.985C400.218 317.985 400.9 322.477 401.071 323.671C401.242 324.865 404.596 325.831 406.757 324.069C406.757 324.069 410.263 327.326 413.295 325.034C413.295 325.034 414.356 325.623 415.873 324.94C417.389 324.258 423.151 320.543 423.378 319.785C423.605 319.027 423.757 303.107 423.378 301.667C422.998 300.227 400.502 303.543 400.502 303.543Z" fill="#F9D5BF"/>
<path d="M397.706 314.186C398.328 315.647 399.275 317.043 400.217 317.985C400.217 317.985 400.307 318.579 400.43 319.388C400.667 319.638 400.814 319.783 400.814 319.783L400.41 315.426C399.517 315.448 398.455 314.768 397.706 314.186Z" fill="#FCA695"/>
<path d="M400.255 313.759L401.089 322.742" stroke="#DB7665" stroke-width="0.5" stroke-miterlimit="10" stroke-linecap="round"/>
<path d="M397.375 298.654L399.251 304.245C399.251 304.245 418.065 303.335 424.666 302.577C424.666 302.577 424.211 297.88 423.529 295.908C422.846 293.935 397.375 298.654 397.375 298.654Z" fill="white"/>
<path d="M250.284 248.146H242.271C242.271 248.146 243.613 266.643 246.278 272.708H252.089L250.284 248.146Z" fill="white"/>
<path d="M325.707 189.9C325.707 189.9 318.42 192.352 318.856 197.355C318.856 197.355 305.381 200.691 301.174 203.988C296.967 207.286 278.886 235.486 276.84 241.172L250.774 245.604C249.635 245.798 248.838 246.837 248.947 247.988L251.723 277.337C251.843 278.606 252.946 279.548 254.217 279.461C259.815 279.077 274.344 277.914 282.071 275.74C291.774 273.011 307.997 250.723 307.997 250.723L311.332 267.704C311.332 267.704 306.48 287.566 308.3 301.818C308.3 301.818 324.675 304.244 350.146 304.244C375.617 304.244 390.628 303.183 390.628 303.183C390.628 303.183 390.022 257.092 389.415 254.514L391.841 257.546C391.841 257.546 395.025 296.966 396.541 300.302L429.101 296.891C429.101 296.891 428.305 254.363 422.847 242.991C417.453 231.754 390.739 203.638 372.99 194.636C372.57 194.423 372.116 194.306 371.646 194.274L357.916 193.355C357.916 193.355 356.814 185.208 353.861 182.245C353.398 181.781 352.746 181.562 352.091 181.569C349.122 181.605 339.298 182.353 325.707 189.9Z" fill="#73A2F4"/>
<path d="M396.541 300.302L429.101 296.891C429.101 296.891 429.02 292.608 428.737 286.404C411.989 286.377 400.121 288.951 394.944 290.341C395.536 295.435 396.107 299.348 396.541 300.302Z" fill="#578DDD"/>
<path opacity="0.33" d="M374.221 239.771L382.282 252.557C384.994 256.859 386.917 261.611 387.959 266.588L390.035 276.498L389.547 255.329L374.221 239.771Z" fill="#73A2F4"/>
<path opacity="0.33" d="M307.978 250.75L306.018 241.022C306.018 241.022 302.762 255.363 293.853 267.307C301.104 260.133 307.724 251.098 307.978 250.75Z" fill="#73A2F4"/>
<path opacity="0.55" d="M308.918 255.414L308.919 255.421L308.918 255.414Z" fill="#73A2F4"/>
<path opacity="0.33" d="M353.861 182.246C353.398 181.782 352.746 181.563 352.091 181.57C349.122 181.605 339.298 182.352 325.707 189.899C325.707 189.899 319.389 192.03 318.876 196.366C320.689 196.496 325.694 196.244 337.982 192.621C349.312 189.281 353.744 186.232 355.435 184.589C354.982 183.671 354.462 182.849 353.861 182.246Z" fill="#73A2F4"/>
<path d="M303.334 227.868L307.997 250.724L311.332 267.705" stroke="#2662AA" stroke-miterlimit="10" stroke-linecap="round"/>
<path d="M371.979 237.382C372.434 238.14 391.841 257.547 391.841 257.547L394.968 290.553" stroke="#2662AA" stroke-miterlimit="10" stroke-linecap="round"/>
<path d="M390.565 295.907L389.504 255.208" stroke="#2662AA" stroke-miterlimit="10" stroke-linecap="round"/>
<path d="M320.164 196.369C320.164 196.369 324.953 196.589 336.545 193.068C348.137 189.547 352.721 186.59 352.721 186.59" stroke="#2662AA" stroke-miterlimit="10" stroke-linecap="round"/>
<path d="M318.856 197.355C318.856 197.355 320.164 203.192 324.523 206.225" stroke="#2662AA" stroke-miterlimit="10" stroke-linecap="round"/>
<path d="M350.811 202.283C350.811 202.283 356.438 197.772 357.916 193.357" stroke="#2662AA" stroke-miterlimit="10" stroke-linecap="round"/>
<path d="M258.454 244.298L250.772 245.604C249.633 245.798 248.836 246.837 248.945 247.988L251.721 277.337C251.841 278.606 252.944 279.548 254.215 279.461C256.256 279.321 259.491 279.076 263.145 278.717C263.209 266.294 259.991 250.913 258.454 244.298Z" fill="#578DDD"/>
<path d="M258.63 244.816C258.63 244.816 261.829 252.561 263.146 278.129" stroke="#2662AA" stroke-miterlimit="10" stroke-linecap="round"/>
<path d="M249.719 251.122L259.98 249.82" stroke="#2662AA" stroke-miterlimit="10" stroke-linecap="round"/>
<path d="M250.284 258.031L260.888 256.686" stroke="#2662AA" stroke-miterlimit="10" stroke-linecap="round"/>
<path d="M251.236 267.771L262.024 266.403" stroke="#2662AA" stroke-miterlimit="10" stroke-linecap="round"/>
<path d="M252.088 276.84L262.784 275.851" stroke="#2662AA" stroke-miterlimit="10" stroke-linecap="round"/>
<path d="M395.314 290.243C395.314 290.243 415.266 286.404 428.228 286.406" stroke="#2662AA" stroke-miterlimit="10" stroke-linecap="round"/>
<path d="M400.034 289.404L402.257 299.214" stroke="#2662AA" stroke-miterlimit="10" stroke-linecap="round"/>
<path d="M409.715 287.931L412.044 298.127" stroke="#2662AA" stroke-miterlimit="10" stroke-linecap="round"/>
<path d="M418.759 286.898L420.515 297.232" stroke="#2662AA" stroke-miterlimit="10" stroke-linecap="round"/>
<path d="M426.251 286.434L427.622 296.626" stroke="#2662AA" stroke-miterlimit="10" stroke-linecap="round"/>
<path d="M304.983 163.961C304.983 163.961 301.174 187.651 324.826 190.38L327.479 195.687C327.479 195.687 340.897 192.124 345.294 189.85L342.11 183.558L342.565 181.511C342.565 181.511 351.738 176.432 353.254 169.458C354.496 163.746 351.359 162.029 351.359 162.029L335.174 147.588L309.291 150.866C309.291 150.866 305.036 157.127 304.983 163.961Z" fill="#F9D5BF"/>
<path d="M324.836 190.401L326.712 194.153C329.523 193.678 336.175 191.912 337.982 185.646C337.982 185.646 334.937 190.068 324.836 190.401Z" fill="#FCA695"/>
<path d="M348.533 167.36C347.508 167.895 344.466 169.825 343.264 174.389C343.147 174.834 343.54 175.254 343.994 175.183C345.54 174.942 348.601 174.212 350.07 172.11C351.827 169.595 350.013 167.961 349.213 167.406C349.009 167.265 348.754 167.245 348.533 167.36Z" fill="#FCA695"/>
<path d="M305.561 161.86C305.561 161.86 307.049 160.815 309.474 160.853C310.742 160.873 311.606 161.286 312.142 161.676C312.539 161.965 313.096 161.751 313.177 161.266C313.273 160.693 313.3 159.933 313.075 159.072C312.582 157.177 309.452 155.921 306.972 156.987C304.494 158.053 305.561 161.86 305.561 161.86Z" fill="#5A2402"/>
<path d="M321.591 160.552C321.54 160.019 321.526 159.332 321.651 158.629C321.707 158.314 321.896 158.044 322.156 157.857C323.184 157.117 326.057 155.319 329.147 155.774C332.12 156.211 334.084 158.732 334.833 159.874C335.07 160.236 335.06 160.697 334.809 161.049C334.474 161.521 333.905 162.133 333.093 162.377C332.664 162.506 332.193 162.344 331.894 162.009C331.317 161.363 330.014 160.284 327.744 160.284C325.629 160.284 323.723 160.833 322.655 161.214C322.167 161.39 321.64 161.069 321.591 160.552Z" fill="#5A2402"/>
<path d="M310.214 153.614C310.214 153.614 306.575 157.082 304.983 163.962C304.983 163.962 303.221 157.367 306.063 152.875L310.214 153.614Z" fill="#5A2402"/>
<path opacity="0.5" d="M310.214 153.614C310.214 153.614 306.575 157.082 304.983 163.962C304.983 163.962 303.221 157.367 306.063 152.875L310.214 153.614Z" fill="#5A2402"/>
<path d="M307.011 149.747C307.011 149.747 304.585 150.202 304.433 153.007C304.281 155.812 309.891 155.66 311.104 153.689C311.104 153.689 311.483 155.652 313.871 155.144C316.259 154.636 317.055 152.487 317.055 152.487C317.055 152.487 319.443 154.901 322.93 150.883C322.93 150.883 323.29 153.555 325.962 153.783C328.634 154.01 330.567 151.85 330.567 151.85C330.567 151.85 329.544 155.137 331.192 155.228C332.841 155.319 334.888 153.385 334.888 153.385C334.888 153.385 337.447 164.984 342.109 166.519C342.109 166.519 344.611 158.616 351.358 162.027C351.358 162.027 353.026 160.132 352.647 158.616C352.268 157.1 349.615 155.887 349.615 155.887C349.615 155.887 352.987 154.522 352.703 152.855C352.419 151.187 349.842 150.05 349.842 150.05C349.842 150.05 352.062 148.937 351.207 146.411C350.411 144.061 345.825 144.743 345.825 144.743C345.825 144.743 345.977 141.73 342.281 141.73C342.281 141.73 341.049 137.466 335.591 138.679C335.591 138.679 334.605 135.722 331.649 135.268C328.692 134.813 324.296 137.163 324.296 137.163C324.296 137.163 321.358 135.476 318.914 135.874C316.469 136.272 315.389 138.717 315.389 138.717C315.389 138.717 312.319 137.694 310.499 139.589C308.68 141.484 309.817 143.455 309.817 143.455C309.817 143.455 306.576 143.663 305.202 146.862C304.147 149.315 307.011 149.747 307.011 149.747Z" fill="#5A2402"/>
<path d="M312.289 167.833C312.665 169.749 312.195 171.453 311.239 171.641C310.284 171.828 309.205 170.427 308.829 168.512C308.454 166.597 308.923 164.892 309.879 164.704C310.835 164.516 311.914 165.917 312.289 167.833Z" fill="#5A2402"/>
<path d="M328.253 167.661C328.938 169.514 328.752 171.289 327.839 171.627C326.926 171.964 325.631 170.736 324.946 168.883C324.261 167.03 324.446 165.255 325.36 164.917C326.273 164.579 327.569 165.808 328.253 167.661Z" fill="#5A2402"/>
<path d="M306.405 165.212C306.405 165.212 310.669 163.393 314.024 166.52" stroke="#5A2402" stroke-width="0.75" stroke-miterlimit="10" stroke-linecap="round"/>
<path d="M322.722 165.895C322.722 165.895 327.498 163.564 331.194 165.895" stroke="#5A2402" stroke-width="0.75" stroke-miterlimit="10" stroke-linecap="round"/>
<path d="M316.336 168.491C316.336 168.491 315.616 173.513 315.729 175.674C315.729 175.674 316.809 176.186 318.856 175.674" stroke="#DB7665" stroke-width="0.75" stroke-miterlimit="10" stroke-linecap="round"/>
<path d="M321.87 182.421C321.87 182.421 326.6 181.132 328.364 177.342" stroke="#DB7665" stroke-width="0.75" stroke-miterlimit="10" stroke-linecap="round"/>
<path d="M349.274 167.089C349.274 167.089 345.635 167.657 343.588 173.457" stroke="#DB7665" stroke-width="0.75" stroke-miterlimit="10" stroke-linecap="round"/>
<path d="M348.876 170.5C348.876 170.5 346.706 171.733 344.607 171.173" stroke="#DB7665" stroke-width="0.75" stroke-miterlimit="10" stroke-linecap="round"/>
<path d="M325.117 190.408C325.117 190.408 333.469 191.139 338.927 184.62" stroke="#DB7665" stroke-width="0.75" stroke-miterlimit="10" stroke-linecap="round"/>
<path opacity="0.39" d="M325.707 184.003C325.707 184.003 327.716 182.468 328.663 181.899C329.611 181.33 329.531 183.589 328.894 184.325C328.108 185.235 326.077 184.779 325.707 184.003Z" fill="#FCA695"/>
<path d="M31.448 213.597C31.448 213.597 34.177 187.023 58.739 187.023C83.301 187.023 87.698 209.788 86.03 214.184C86.03 214.184 101.192 215.549 102.859 226.162C104.527 236.775 95.43 244.508 81.33 244.508C67.23 244.508 34.784 244.508 34.784 244.508C34.784 244.508 14.467 244.053 14.467 231.014C14.467 217.975 24.322 213.616 31.448 213.597Z" fill="#D5ECF7"/>
<path d="M78.214 304.648C74.649 304.692 71.104 305.179 67.659 306.098V315.795C66.137 316.301 64.653 316.916 63.219 317.634L56.333 310.748C53.248 312.534 50.397 314.697 47.846 317.188C45.355 319.74 43.192 322.591 41.406 325.677L48.266 332.539C47.54 333.986 46.92 335.483 46.41 337.02H36.695C35.776 340.465 35.289 344.01 35.246 347.575C35.289 351.14 35.776 354.686 36.695 358.131H46.371C46.885 359.683 47.511 361.195 48.245 362.656L41.389 369.512C43.175 372.597 45.337 375.448 47.827 378C50.379 380.49 53.23 382.654 56.316 384.44L63.164 377.592C64.615 378.32 66.117 378.942 67.658 379.452V389.151C71.103 390.07 74.648 390.557 78.213 390.6C81.778 390.557 85.324 390.07 88.769 389.151V379.458C90.325 378.943 91.842 378.316 93.306 377.579L100.212 384.485C103.274 382.668 106.098 380.478 108.62 377.964C111.11 375.412 113.273 372.561 115.058 369.475L108.208 362.625C108.937 361.174 109.559 359.672 110.07 358.131H119.86C120.74 354.681 121.189 351.135 121.195 347.575C121.151 344.01 120.664 340.465 119.745 337.02H110.04C109.531 335.493 108.912 334.004 108.189 332.565L115.124 325.631C113.307 322.569 111.116 319.744 108.602 317.223C106.05 314.734 103.199 312.571 100.113 310.786L93.256 317.643C91.807 316.916 90.308 316.296 88.769 315.786V305.982C85.321 305.102 81.775 304.654 78.214 304.648ZM78.558 331.849C87.475 331.849 94.704 339.077 94.704 347.994C94.704 356.911 87.475 364.14 78.558 364.14C69.641 364.14 62.412 356.912 62.411 347.995C62.411 339.078 69.64 331.849 78.558 331.849V331.849Z" fill="#A4BFD8"/>
<path d="M148.244 380.317C146.311 380.341 144.388 380.605 142.521 381.103V386.361C141.696 386.636 140.891 386.969 140.114 387.358L136.38 383.624C134.707 384.593 133.161 385.766 131.778 387.116C130.428 388.5 129.254 390.046 128.286 391.719L132.006 395.44C131.612 396.225 131.276 397.036 131 397.87H125.732C125.234 399.738 124.97 401.66 124.946 403.593C124.969 405.526 125.233 407.449 125.732 409.317H130.979C131.257 410.159 131.597 410.979 131.995 411.771L128.277 415.489C129.245 417.162 130.418 418.708 131.768 420.091C133.152 421.441 134.698 422.615 136.371 423.583L140.085 419.869C140.872 420.264 141.686 420.601 142.522 420.878V426.137C144.39 426.635 146.312 426.899 148.245 426.923C150.178 426.9 152.101 426.636 153.969 426.137V420.881C154.813 420.602 155.635 420.262 156.429 419.862L160.174 423.607C161.835 422.622 163.366 421.434 164.734 420.071C166.084 418.687 167.257 417.141 168.225 415.468L164.511 411.754C164.906 410.967 165.244 410.153 165.521 409.317H170.83C171.307 407.446 171.55 405.523 171.554 403.593C171.53 401.66 171.266 399.737 170.768 397.87H165.506C165.23 397.042 164.894 396.234 164.502 395.454L168.263 391.694C167.277 390.033 166.089 388.502 164.726 387.135C163.342 385.785 161.796 384.613 160.123 383.644L156.405 387.362C155.619 386.968 154.806 386.632 153.972 386.355V381.039C152.098 380.563 150.175 380.32 148.244 380.317ZM148.431 395.067C153.266 395.067 157.186 398.987 157.186 403.822C157.186 408.657 153.266 412.577 148.431 412.577C143.595 412.577 139.675 408.657 139.675 403.822C139.675 398.987 143.595 395.067 148.431 395.067V395.067Z" fill="#A4BFD8"/>
<path d="M408.804 83.126V61.786C408.804 59.693 407.107 57.996 405.014 57.996H384.97C382.876 57.996 381.18 59.693 381.18 61.786V72.778H376.063V58.854C376.063 55.365 378.891 52.537 382.38 52.537H408.18C411.669 52.537 414.497 55.365 414.497 58.854V83.125L408.804 83.126Z" fill="#A4BFD8"/>
<path d="M414.493 82.044C414.093 81.934 413.673 81.874 413.243 81.874H376.633C374.053 81.874 371.973 83.964 371.973 86.534V112.634C371.973 112.634 376.293 130.774 394.943 130.774C413.583 130.774 417.913 112.634 417.913 112.634V86.534C417.913 84.394 416.463 82.593 414.493 82.044ZM398.463 103.424V110.194H391.413V103.424C391.413 103.424 387.893 103.534 387.893 98.304C387.893 92.334 394.943 92.334 394.943 92.334C394.943 92.334 401.993 92.334 401.993 98.304C401.993 103.534 398.463 103.424 398.463 103.424Z" fill="#A4BFD8"/>
</svg>
