<svg width="450" height="100" viewBox="0 0 450 100" fill="none" xmlns="http://www.w3.org/2000/svg">
<g clip-path="url(#clip0_1_17)">
<path d="M197.264 79H187.688L158.876 35.404V79H149.3V20.536H158.876L187.688 64.048V20.536H197.264V79ZM238.315 79.756C233.947 79.756 229.999 78.776 226.471 76.816C222.943 74.8 220.171 72 218.155 68.416C216.139 64.776 215.131 60.576 215.131 55.816C215.131 51.112 216.167 46.94 218.239 43.3C220.311 39.66 223.139 36.86 226.723 34.9C230.307 32.94 234.311 31.96 238.735 31.96C243.159 31.96 247.163 32.94 250.747 34.9C254.331 36.86 257.159 39.66 259.231 43.3C261.303 46.94 262.339 51.112 262.339 55.816C262.339 60.52 261.275 64.692 259.147 68.332C257.019 71.972 254.107 74.8 250.411 76.816C246.771 78.776 242.739 79.756 238.315 79.756ZM238.315 71.44C240.779 71.44 243.075 70.852 245.203 69.676C247.387 68.5 249.151 66.736 250.495 64.384C251.839 62.032 252.511 59.176 252.511 55.816C252.511 52.456 251.867 49.628 250.579 47.332C249.291 44.98 247.583 43.216 245.455 42.04C243.327 40.864 241.031 40.276 238.567 40.276C236.103 40.276 233.807 40.864 231.679 42.04C229.607 43.216 227.955 44.98 226.723 47.332C225.491 49.628 224.875 52.456 224.875 55.816C224.875 60.8 226.135 64.664 228.655 67.408C231.231 70.096 234.451 71.44 238.315 71.44ZM291.377 40.528V66.148C291.377 67.884 291.769 69.144 292.553 69.928C293.393 70.656 294.793 71.02 296.753 71.02H302.633V79H295.073C290.761 79 287.457 77.992 285.161 75.976C282.865 73.96 281.717 70.684 281.717 66.148V40.528H276.257V32.716H281.717V21.208H291.377V32.716H302.633V40.528H291.377ZM362.279 54.724C362.279 56.46 362.167 58.028 361.943 59.428H326.579C326.859 63.124 328.231 66.092 330.695 68.332C333.159 70.572 336.183 71.692 339.767 71.692C344.919 71.692 348.559 69.536 350.687 65.224H361.019C359.619 69.48 357.071 72.98 353.375 75.724C349.735 78.412 345.199 79.756 339.767 79.756C335.343 79.756 331.367 78.776 327.839 76.816C324.367 74.8 321.623 72 319.607 68.416C317.647 64.776 316.667 60.576 316.667 55.816C316.667 51.056 317.619 46.884 319.523 43.3C321.483 39.66 324.199 36.86 327.671 34.9C331.199 32.94 335.231 31.96 339.767 31.96C344.135 31.96 348.027 32.912 351.443 34.816C354.859 36.72 357.519 39.408 359.423 42.88C361.327 46.296 362.279 50.244 362.279 54.724ZM352.283 51.7C352.227 48.172 350.967 45.344 348.503 43.216C346.039 41.088 342.987 40.024 339.347 40.024C336.043 40.024 333.215 41.088 330.863 43.216C328.511 45.288 327.111 48.116 326.663 51.7H352.283ZM396.903 79.756C393.263 79.756 389.987 79.112 387.075 77.824C384.219 76.48 381.951 74.688 380.271 72.448C378.591 70.152 377.695 67.604 377.583 64.804H387.495C387.663 66.764 388.587 68.416 390.267 69.76C392.003 71.048 394.159 71.692 396.735 71.692C399.423 71.692 401.495 71.188 402.951 70.18C404.463 69.116 405.219 67.772 405.219 66.148C405.219 64.412 404.379 63.124 402.699 62.284C401.075 61.444 398.471 60.52 394.887 59.512C391.415 58.56 388.587 57.636 386.403 56.74C384.219 55.844 382.315 54.472 380.691 52.624C379.123 50.776 378.339 48.34 378.339 45.316C378.339 42.852 379.067 40.612 380.523 38.596C381.979 36.524 384.051 34.9 386.739 33.724C389.483 32.548 392.619 31.96 396.147 31.96C401.411 31.96 405.639 33.304 408.831 35.992C412.079 38.624 413.815 42.236 414.039 46.828H404.463C404.295 44.756 403.455 43.104 401.943 41.872C400.431 40.64 398.387 40.024 395.811 40.024C393.291 40.024 391.359 40.5 390.015 41.452C388.671 42.404 387.999 43.664 387.999 45.232C387.999 46.464 388.447 47.5 389.343 48.34C390.239 49.18 391.331 49.852 392.619 50.356C393.907 50.804 395.811 51.392 398.331 52.12C401.691 53.016 404.435 53.94 406.563 54.892C408.747 55.788 410.623 57.132 412.191 58.924C413.759 60.716 414.571 63.096 414.627 66.064C414.627 68.696 413.899 71.048 412.443 73.12C410.987 75.192 408.915 76.816 406.227 77.992C403.595 79.168 400.487 79.756 396.903 79.756Z" fill="black"/>
<path d="M82.9792 70.1042L117.875 35.2083L112.458 29.7917L77.5625 64.6875L82.9792 70.1042ZM55.7917 79.1667C48.8472 78.8194 43.6736 77.3611 40.2708 74.7917C36.8681 72.2222 35.1667 68.5069 35.1667 63.6458C35.1667 59.1319 37.0243 55.4687 40.7396 52.6562C44.4549 49.8437 49.6111 48.1597 56.2083 47.6042C58.9167 47.3958 60.9479 46.9618 62.3021 46.3021C63.6563 45.6424 64.3333 44.7222 64.3333 43.5417C64.3333 41.7361 63.309 40.3819 61.2604 39.4792C59.2118 38.5764 55.8264 37.9167 51.1042 37.5L51.8333 29.1667C58.9861 29.7222 64.2465 31.1632 67.6146 33.4896C70.9826 35.816 72.6667 39.1667 72.6667 43.5417C72.6667 47.2222 71.3299 50.1042 68.6563 52.1875C65.9826 54.2708 62.0417 55.5208 56.8333 55.9375C52.3889 56.2847 49.0556 57.1007 46.8333 58.3854C44.6111 59.6701 43.5 61.4236 43.5 63.6458C43.5 66.0764 44.4722 67.8299 46.4167 68.9062C48.3611 69.9826 51.625 70.625 56.2083 70.8333L55.7917 79.1667ZM84.9583 79.8958L67.7708 62.7083L107.563 22.9167C108.951 21.5278 110.601 20.8333 112.51 20.8333C114.42 20.8333 116.069 21.5278 117.458 22.9167L124.75 30.2083C126.139 31.5972 126.833 33.2465 126.833 35.1562C126.833 37.066 126.139 38.7153 124.75 40.1042L84.9583 79.8958ZM68.3958 83.3333C67.2153 83.6111 66.1736 83.2986 65.2708 82.3958C64.3681 81.493 64.0556 80.4514 64.3333 79.2708L67.7708 62.7083L84.9583 79.8958L68.3958 83.3333Z" fill="black"/>
</g>
<defs>
<clipPath id="clip0_1_17">
<rect width="450" height="100" fill="white"/>
</clipPath>
</defs>
</svg>
